<?xml version="1.0" encoding="utf-8"?>
<!-- Generator: Adobe Illustrator 22.0.1, SVG Export Plug-In . SVG Version: 6.00 Build 0)  -->
<svg version="1.1" id="Layer_1" xmlns="http://www.w3.org/2000/svg" xmlns:xlink="http://www.w3.org/1999/xlink" x="0px" y="0px"
	 viewBox="0 0 545.7 122.6" style="enable-background:new 0 0 545.7 122.6;" xml:space="preserve">
<style type="text/css">
	.st0{fill:#BE202E;}
	.st1{fill:#58595B;}
</style>
<g>
	<g>
		<path class="st0" d="M133.4,74.3h-3.2V51.5l-8.5,22.8h-2.2L111,51.5v22.8h-2.8V48.2h4.8l7.9,20.9l7.7-20.9h4.8V74.3z"/>
		<path class="st0" d="M159.9,74.3h-3.3V48.2h9.3c2.9,0,5,0.8,6.4,2.4c1.4,1.6,2.1,3.4,2.1,5.4c0,2.2-0.7,4.1-2.2,5.6
			c-1.5,1.5-3.5,2.2-5.9,2.2h-6.3V74.3z M159.9,61h6c1.5,0,2.8-0.5,3.7-1.4c0.9-0.9,1.4-2.1,1.4-3.7c0-1.3-0.4-2.5-1.3-3.5
			s-2.1-1.5-3.7-1.5h-6.2V61z"/>
		<path class="st1" d="M211.2,74.3h-3.3l-2.6-7.6h-9.7l-2.3,7.6h-2.7l8.5-26.1h3.7L211.2,74.3z M204.6,64.3l-4-12.6l-4,12.6H204.6z"
			/>
		<path class="st1" d="M250.1,74.3h-3.4L241.9,63h-7.5v11.3h-3.1V48.2h10.3c2.8,0,4.9,0.8,6.2,2.3c1.3,1.5,2,3.2,2,5
			c0,1.4-0.4,2.7-1.1,4c-0.8,1.3-2,2.2-3.7,2.7L250.1,74.3z M234.4,60.4h6.8c1.8,0,3.1-0.5,4-1.4c0.9-1,1.3-2.1,1.3-3.5
			c0-1.4-0.5-2.4-1.4-3.2c-0.9-0.8-2.1-1.1-3.5-1.1h-7.2V60.4z"/>
		<path class="st1" d="M287.2,65.6l3,0.7c-1.4,5.8-4.7,8.6-9.7,8.6c-3.3,0-5.9-1.3-7.8-4c-1.9-2.7-2.8-5.9-2.8-9.8
			c0-4,1-7.2,2.9-9.7c2-2.4,4.6-3.7,7.9-3.7c4.9,0,8,2.8,9.4,8.4l-3.1,0.6c-1.1-4.2-3.2-6.2-6.4-6.2c-2.3,0-4.1,1-5.4,2.9
			c-1.3,1.9-1.9,4.6-1.9,8.1c0,3.2,0.6,5.8,1.9,7.7c1.3,1.9,3,2.9,5.2,2.9C283.9,72.1,286.1,69.9,287.2,65.6z"/>
		<path class="st1" d="M329.6,74.3h-3.3V61.9h-12.1v12.4h-3.3V48.2h3.3V59h12.1V48.2h3.3V74.3z"/>
		<path class="st1" d="M356.1,74.3h-3.3V48.2h3.3V74.3z"/>
		<path class="st1" d="M387.2,74.3h-3.3V51.1h-7.5v-2.9h18.3v2.9h-7.5V74.3z"/>
		<path class="st1" d="M431.9,71.5v2.9H415V48.2h16.5v2.9h-13.3v8.3h10.5v2.7h-10.5v9.4H431.9z"/>
		<path class="st1" d="M468.8,65.6l3,0.7c-1.4,5.8-4.7,8.6-9.7,8.6c-3.3,0-5.9-1.3-7.8-4c-1.9-2.7-2.8-5.9-2.8-9.8
			c0-4,1-7.2,2.9-9.7c2-2.4,4.6-3.7,7.9-3.7c4.9,0,8,2.8,9.4,8.4l-3.1,0.6c-1.1-4.2-3.2-6.2-6.4-6.2c-2.3,0-4.1,1-5.4,2.9
			c-1.3,1.9-1.9,4.6-1.9,8.1c0,3.2,0.6,5.8,1.9,7.7c1.3,1.9,3,2.9,5.2,2.9C465.5,72.1,467.7,69.9,468.8,65.6z"/>
		<path class="st1" d="M500.4,74.3h-3.3V51.1h-7.5v-2.9h18.3v2.9h-7.5V74.3z"/>
		<path class="st1" d="M525.4,67.4l2.9-0.7c1.2,3.6,3.8,5.3,7.7,5.3c2.1,0,3.6-0.4,4.7-1.3c1-0.9,1.6-2.1,1.6-3.5
			c0-1.1-0.4-2-1.2-2.7c-0.8-0.7-1.7-1.1-2.8-1.4l-5.2-1.3c-1.4-0.3-2.5-0.8-3.3-1.3c-0.9-0.5-1.6-1.2-2.2-2.3s-0.9-2.2-0.9-3.5
			c0-2.2,0.8-3.9,2.5-5.2s3.8-1.9,6.3-1.9c4.7,0,7.9,2.1,9.4,6.4l-3,0.9c-0.3-1.5-1.2-2.7-2.4-3.5c-1.3-0.8-2.6-1.2-4.1-1.2
			c-1.4,0-2.7,0.4-3.8,1.1c-1.1,0.8-1.7,1.8-1.7,3.2c0,1.9,1.4,3.2,4.2,3.9l4.9,1.1c4.5,1.1,6.7,3.5,6.7,7.2c0,2.3-0.8,4.1-2.5,5.6
			c-1.7,1.5-4,2.2-7.1,2.2C530.7,74.9,527.1,72.4,525.4,67.4z"/>
	</g>
	<g>
		<rect class="st1" width="5.9" height="97.2"/>
		<rect x="22.4" y="40.5" class="st1" width="5.9" height="52.4"/>
		<rect x="67.2" y="14.7" class="st1" width="5.9" height="51.5"/>
		<rect x="89.6" class="st1" width="5.9" height="52.4"/>
		<rect x="44.8" y="23.2" class="st0" width="5.9" height="99.4"/>
	</g>
</g>
</svg>
