<?xml version="1.0" encoding="utf-8"?>
<!-- Generator: Adobe Illustrator 22.0.1, SVG Export Plug-In . SVG Version: 6.00 Build 0)  -->
<svg version="1.1" id="Layer_1" xmlns="http://www.w3.org/2000/svg" xmlns:xlink="http://www.w3.org/1999/xlink" x="0px" y="0px"
	 viewBox="0 0 545.7 210.1" style="enable-background:new 0 0 545.7 210.1;" xml:space="preserve">
<style type="text/css">
	.st0{fill:#BE202E;}
	.st1{fill:#58595B;}
</style>
<g>
	<path class="st0" d="M31.5,209.3h-4v-28.4l-10.6,28.4h-2.8L3.5,180.9v28.4H0v-32.6h6l9.8,26.1l9.6-26.1h6V209.3z"/>
	<path class="st0" d="M64.5,209.3h-4.1v-32.6H72c3.6,0,6.3,1,8,2.9c1.7,2,2.6,4.2,2.6,6.7c0,2.8-0.9,5.1-2.8,6.9
		c-1.9,1.8-4.3,2.7-7.3,2.7h-7.9V209.3z M64.5,192.7H72c1.9,0,3.5-0.6,4.7-1.7c1.2-1.2,1.8-2.7,1.8-4.6c0-1.6-0.5-3.1-1.6-4.3
		c-1-1.3-2.6-1.9-4.6-1.9h-7.8V192.7z"/>
	<path class="st1" d="M128.5,209.3h-4.2l-3.3-9.5H109l-2.9,9.5h-3.4l10.6-32.6h4.6L128.5,209.3z M120.2,196.8l-5-15.7l-5,15.7H120.2
		z"/>
	<path class="st1" d="M177,209.3h-4.3l-6-14.1h-9.3v14.1h-3.8v-32.6h12.8c3.5,0,6.1,1,7.7,2.9c1.7,1.9,2.5,4,2.5,6.2
		c0,1.7-0.5,3.4-1.4,5c-0.9,1.6-2.5,2.7-4.7,3.4L177,209.3z M157.4,191.9h8.5c2.2,0,3.9-0.6,5-1.8c1.1-1.2,1.7-2.6,1.7-4.4
		c0-1.7-0.6-3.1-1.8-4c-1.2-1-2.6-1.4-4.4-1.4h-9V191.9z"/>
	<path class="st1" d="M223.3,198.4l3.7,0.8c-1.8,7.2-5.8,10.8-12.1,10.8c-4.1,0-7.4-1.7-9.7-5c-2.3-3.3-3.5-7.4-3.5-12.3
		c0-5,1.2-9,3.7-12.1c2.4-3,5.7-4.6,9.9-4.6c6.1,0,10,3.5,11.8,10.5l-3.8,0.8c-1.4-5.2-4-7.8-7.9-7.8c-2.9,0-5.1,1.2-6.7,3.6
		c-1.6,2.4-2.4,5.8-2.4,10.2c0,4,0.8,7.2,2.4,9.6c1.6,2.4,3.8,3.6,6.4,3.6C219.2,206.5,221.9,203.8,223.3,198.4z"/>
	<path class="st1" d="M276.1,209.3h-4.1v-15.5H257v15.5h-4.1v-32.6h4.1v13.5h15.1v-13.5h4.1V209.3z"/>
	<path class="st1" d="M309.2,209.3h-4.1v-32.6h4.1V209.3z"/>
	<path class="st1" d="M348,209.3h-4.1v-29h-9.3v-3.6h22.8v3.6H348V209.3z"/>
	<path class="st1" d="M403.7,205.8v3.6h-21.1v-32.6h20.6v3.6h-16.5v10.4h13.1v3.3h-13.1v11.7H403.7z"/>
	<path class="st1" d="M449.8,198.4l3.7,0.8c-1.8,7.2-5.8,10.8-12.1,10.8c-4.1,0-7.4-1.7-9.7-5s-3.5-7.4-3.5-12.3c0-5,1.2-9,3.7-12.1
		c2.4-3,5.7-4.6,9.9-4.6c6.1,0,10,3.5,11.8,10.5l-3.8,0.8c-1.4-5.2-4-7.8-7.9-7.8c-2.9,0-5.1,1.2-6.7,3.6c-1.6,2.4-2.4,5.8-2.4,10.2
		c0,4,0.8,7.2,2.4,9.6c1.6,2.4,3.8,3.6,6.4,3.6C445.7,206.5,448.4,203.8,449.8,198.4z"/>
	<path class="st1" d="M489.2,209.3h-4.1v-29h-9.3v-3.6h22.8v3.6h-9.4V209.3z"/>
	<path class="st1" d="M520.3,200.7l3.7-0.8c1.5,4.4,4.7,6.7,9.6,6.7c2.6,0,4.5-0.5,5.8-1.6c1.3-1.1,2-2.6,2-4.4
		c0-1.4-0.5-2.5-1.5-3.4c-1-0.8-2.1-1.4-3.4-1.7l-6.5-1.6c-1.7-0.4-3.1-1-4.1-1.6c-1.1-0.6-2-1.6-2.7-2.8s-1.1-2.7-1.1-4.4
		c0-2.7,1-4.9,3.1-6.5c2.1-1.6,4.7-2.4,7.9-2.4c5.9,0,9.8,2.7,11.7,8l-3.7,1.1c-0.4-1.9-1.4-3.4-3-4.3c-1.6-1-3.3-1.5-5.1-1.5
		c-1.8,0-3.4,0.5-4.8,1.4c-1.4,0.9-2.1,2.3-2.1,4c0,2.4,1.8,4,5.3,4.9l6.1,1.4c5.6,1.3,8.4,4.3,8.4,9c0,2.8-1,5.2-3.1,7
		c-2.1,1.9-5,2.8-8.8,2.8C527,210,522.5,206.9,520.3,200.7z"/>
</g>
<rect x="213.3" y="0" class="st1" width="7.4" height="121.2"/>
<rect x="241.2" y="50.5" class="st1" width="7.4" height="65.4"/>
<rect x="297.1" y="18.4" class="st1" width="7.4" height="64.3"/>
<rect x="325.1" y="0" class="st1" width="7.4" height="65.4"/>
<rect x="269.2" y="28.9" class="st0" width="7.4" height="124"/>
</svg>
