<?xml version="1.0" standalone="no"?>
<!DOCTYPE svg PUBLIC "-//W3C//DTD SVG 20010904//EN"
 "http://www.w3.org/TR/2001/REC-SVG-20010904/DTD/svg10.dtd">
<svg version="1.0" xmlns="http://www.w3.org/2000/svg"
 width="260.000000pt" height="260.000000pt" viewBox="0 0 260.000000 260.000000"
 preserveAspectRatio="xMidYMid meet">
<metadata>
Created by potrace 1.11, written by Peter Selinger 2001-2013
</metadata>
<g transform="translate(0.000000,260.000000) scale(0.100000,-0.100000)"
fill="#000000" stroke="none">
<path d="M280 1568 l0 -1033 57 2 c32 1 60 2 63 2 3 1 6 465 6 1031 l0 1030
-63 0 -63 0 0 -1032z"/>
<path d="M2186 2053 c1 -302 2 -552 3 -558 0 -6 26 -9 61 -7 l60 4 0 554 0
554 -63 0 -62 0 1 -547z"/>
<path d="M1710 1739 l0 -548 62 2 63 2 1 535 c0 294 -2 541 -4 548 -3 9 -22
12 -63 11 l-59 -2 0 -548z"/>
<path d="M1231 1055 l1 -1055 64 0 64 0 0 1055 0 1055 -64 0 -65 0 0 -1055z"/>
<path d="M756 1190 c0 -302 4 -553 7 -557 11 -10 109 -6 116 5 3 6 6 255 5
554 l0 543 -65 3 -64 3 1 -551z"/>
</g>
</svg>
